:SAMPLES-PER-SECOND 30
:FULLY-SPECIFIED
:DEGREES
292
root  -14.3827 40.7468 -13.2719 165.875 -81.8465 -165.831
RightUpLeg  -3.58011 -7.14794 -0.234924
RightLeg  7.01912 -4.76585 4.87416
RightFoot  -2.65473 0.29418 -4.10584
RightToes  0.00048216 0.542163 -0.142577
Spine  -2.55138 -1.07594 7.62553
Spine1  21.0639 -2.06671 2.18389
HEad  -18.2106 6.27037 3.40611
LeftShoulder1  9.10157 -16.8588 -38.5076
LeftArm  52.8567 34.4162 -0.187543
LeftForeArm  -157.702 -76.3879 -145.886
LeftHand  -0.25398 0.0180481 5.50724
RightShoulder  4.25077 9.47005 26.7223
RightArm  52.5118 -29.9616 5.63701
RightForeArm  -174.358 73.3717 150.189
RightHand  -8.06692 25.0025 -30.4593
LeftUpLeg  2.74315 10.1676 13.7226
LeftLeg  5.67851 10.7181 -0.664654
LeftFoot  -4.43749 0.520735 -8.18334
LeftToes  1.06246e-005 4.65855e-005 -8.18503e-006
293
root  -14.2731 40.7554 -13.2938 165.469 -82.6175 -165.04
RightUpLeg  -4.01277 -7.25001 -0.312118
RightLeg  6.80282 -5.42628 4.971
RightFoot  -2.42823 0.304504 -4.11363
RightToes  0.00048216 0.542163 -0.142577
Spine  -2.40945 -0.936412 7.46078
Spine1  21.2418 -1.65004 1.5188
HEad  -18.1518 5.71193 2.63537
LeftShoulder1  9.02263 -16.8719 -38.108
LeftArm  52.7851 34.3219 -0.0582595
LeftForeArm  -156.805 -76.0758 -146.798
LeftHand  -0.25398 0.0180481 5.50724
RightShoulder  4.24521 9.46942 26.7103
RightArm  52.5114 -29.8748 6.42069
RightForeArm  -176.493 74.1193 148.444
RightHand  -8.38788 25.3639 -31.2389
LeftUpLeg  1.95549 10.0525 13.5565
LeftLeg  5.57567 10.2264 -0.715254
LeftFoot  -4.12502 0.540617 -8.17277
LeftToes  1.06246e-005 4.65855e-005 -8.18503e-006
294
root  -14.1682 40.7618 -13.3079 164.4 -83.4139 -163.79
RightUpLeg  -4.24412 -7.34213 -0.385351
RightLeg  6.64516 -6.1506 5.01578
RightFoot  -2.2235 0.313726 -4.11905
RightToes  0.00048216 0.542163 -0.142577
Spine  -2.09643 -0.813219 7.26312
Spine1  21.3416 -1.22549 0.839453
HEad  -18.2035 5.228 1.69832
LeftShoulder1  8.93228 -16.8732 -37.6784
LeftArm  52.6874 34.2707 0.0833212
LeftForeArm  -155.801 -75.689 -147.857
LeftHand  -0.25398 0.0180481 5.50724
RightShoulder  4.2456 9.47566 26.6566
RightArm  52.5181 -29.8437 7.25547
RightForeArm  -178.393 74.8836 146.527
RightHand  -8.80139 25.9384 -32.107
LeftUpLeg  1.35419 9.92688 13.4239
LeftLeg  5.53392 9.66516 -0.722958
LeftFoot  -3.8583 0.556528 -8.14795
LeftToes  1.06246e-005 4.65855e-005 -8.18503e-006
295
root  -14.0733 40.766 -13.3177 162.566 -84.2181 -161.993
RightUpLeg  -4.24517 -7.45106 -0.47671
RightLeg  6.54759 -6.87238 5.03415
RightFoot  -2.07705 0.318236 -4.09686
RightToes  0.00048216 0.542163 -0.142577
Spine  -1.69152 -0.698119 6.96935
Spine1  21.4301 -0.801176 0.188609
HEad  -18.3289 4.78486 0.553593
LeftShoulder1  8.84474 -16.8593 -37.2922
LeftArm  52.6279 34.2024 0.304579
LeftForeArm  -154.68 -75.2164 -149.063
LeftHand  -0.25398 0.0180481 5.50724
RightShoulder  4.26582 9.52428 26.6928
RightArm  52.6093 -29.7611 7.96183
RightForeArm  179.594 75.5893 144.529
RightHand  -9.17626 26.4144 -32.9063
LeftUpLeg  0.970858 9.75884 13.3097
LeftLeg  5.54288 9.06318 -0.667246
LeftFoot  -3.65112 0.571118 -8.1631
LeftToes  1.06246e-005 4.65855e-005 -8.18503e-006
296
root  -13.9919 40.7685 -13.3157 159.591 -85.0098 -159.124
RightUpLeg  -4.15012 -7.57005 -0.57112
RightLeg  6.47205 -7.57352 5.06578
RightFoot  -1.98839 0.315538 -4.01841
RightToes  0.00048216 0.542163 -0.142577
Spine  -1.46765 -0.562205 6.63323
Spine1  21.6238 -0.352172 -0.486045
HEad  -18.3492 4.32205 -0.753215
LeftShoulder1  8.77639 -16.8579 -36.9701
LeftArm  52.5878 34.0951 0.595224
LeftForeArm  -153.652 -74.7211 -150.229
LeftHand  -0.25398 0.0180481 5.50724
RightShoulder  4.31427 9.59364 26.8964
RightArm  52.7833 -29.5259 8.47765
RightForeArm  177.016 76.2201 142.426
RightHand  -9.52551 26.7431 -33.7398
LeftUpLeg  0.644199 9.63989 13.2356
LeftLeg  5.63696 8.37899 -0.599963
LeftFoot  -3.52337 0.580657 -8.18006
LeftToes  1.06246e-005 4.65855e-005 -8.18503e-006
297
root  -13.925 40.7698 -13.2927 154.653 -85.7728 -154.296
RightUpLeg  -4.01858 -7.66528 -0.639809
RightLeg  6.39141 -8.31015 5.09845
RightFoot  -1.9313 0.309067 -3.90956
RightToes  0.00048216 0.542163 -0.142577
Spine  -1.48786 -0.395322 6.32436
Spine1  21.9037 0.122305 -1.18956
HEad  -18.1937 3.86358 -2.28995
LeftShoulder1  8.73615 -16.8667 -36.7605
LeftArm  52.5369 33.9192 0.976982
LeftForeArm  -152.688 -74.2021 -151.357
LeftHand  -0.25398 0.0180481 5.50724
RightShoulder  4.34149 9.60121 27.0918
RightArm  52.9984 -29.1409 8.97539
RightForeArm  174.176 76.8208 140.148
RightHand  -9.88959 27.0924 -34.5808
LeftUpLeg  0.304322 9.68899 13.2502
LeftLeg  5.83483 7.52301 -0.609399
LeftFoot  -3.48588 0.579042 -8.12071
LeftToes  1.06246e-005 4.65855e-005 -8.18503e-006
298
root  -13.8757 40.7713 -13.2501 147.013 -86.4821 -146.871
RightUpLeg  -3.73815 -7.72447 -0.699277
RightLeg  6.29718 -9.09299 5.08323
RightFoot  -1.90064 0.298614 -3.768
RightToes  0.00048216 0.542163 -0.142577
Spine  -1.58087 -0.205466 5.95571
Spine1  22.1597 0.581516 -1.79466
HEad  -17.8956 3.4998 -4.15184
LeftShoulder1  8.70865 -16.8332 -36.698
LeftArm  52.4475 33.653 1.45179
LeftForeArm  -151.716 -73.6161 -152.533
LeftHand  -0.25398 0.0180481 5.50724
RightShoulder  4.31512 9.52725 27.0769
RightArm  53.2226 -28.7003 9.64247
RightForeArm  171.331 77.443 137.553
RightHand  -10.2225 27.4899 -35.2514
LeftUpLeg  0.0986703 9.82958 13.3295
LeftLeg  6.06089 6.5579 -0.689354
LeftFoot  -3.51187 0.570361 -8.0191
LeftToes  1.06246e-005 4.65855e-005 -8.18503e-006
299
root  -13.851 40.7747 -13.1927 136.396 -87.0905 -136.627
RightUpLeg  -3.22907 -7.77331 -0.797501
RightLeg  6.17083 -9.8354 5.015
RightFoot  -1.90786 0.279781 -3.54427
RightToes  0.00048216 0.542163 -0.142577
Spine  -1.71065 0.00416436 5.46613
Spine1  22.374 1.04677 -2.32656
HEad  -17.41 3.25347 -6.16388
LeftShoulder1  8.64488 -16.7213 -36.6228
LeftArm  52.2376 33.3579 1.86271
LeftForeArm  -150.909 -73 -153.663
LeftHand  -0.25398 0.0180481 5.50724
RightShoulder  4.28677 9.47037 27.0014
RightArm  53.4284 -28.3057 10.3905
RightForeArm  168.001 78.0725 134.514
RightHand  -10.4927 27.8107 -35.7829
LeftUpLeg  0.147509 9.82124 13.3675
LeftLeg  6.20701 5.73246 -0.72227
LeftFoot  -3.55312 0.565877 -7.99211
LeftToes  1.06246e-005 4.65855e-005 -8.18503e-006
300
root  -13.8563 40.7816 -13.116 122.582 -87.544 -123.249
RightUpLeg  -2.58014 -7.85038 -0.958995
RightLeg  6.00409 -10.4583 4.9494
RightFoot  -1.94631 0.25513 -3.26261
RightToes  0.00048216 0.542163 -0.142577
Spine  -2.03146 0.241823 4.9995
Spine1  22.5934 1.62081 -3.04503
HEad  -16.6721 3.05358 -7.96534
LeftShoulder1  8.51673 -16.5624 -36.332
LeftArm  51.8541 33.141 2.09806
LeftForeArm  -150.327 -72.3993 -154.669
LeftHand  -0.25398 0.0180481 5.50724
RightShoulder  4.32632 9.51634 27.1944
RightArm  53.5787 -28.0655 10.9783
RightForeArm  163.915 78.6506 131.119
RightHand  -10.7545 28.035 -36.3756
LeftUpLeg  0.369995 9.57409 13.2977
LeftLeg  6.25149 5.18314 -0.645345
LeftFoot  -3.57849 0.567667 -8.0446
LeftToes  1.06246e-005 4.65855e-005 -8.18503e-006
301
root  -13.8872 40.7919 -13.0127 105.651 -87.8007 -106.735
RightUpLeg  -1.91051 -7.96706 -1.17738
RightLeg  5.83592 -10.9704 4.91586
RightFoot  -1.99384 0.23324 -3.01596
RightToes  0.00048216 0.542163 -0.142577
Spine  -2.53845 0.529418 4.65109
Spine1  22.7452 2.33505 -4.00208
HEad  -15.7729 2.86212 -9.42854
LeftShoulder1  8.38572 -16.4178 -35.9928
LeftArm  51.4015 33.0278 2.40134
LeftForeArm  -149.642 -71.7223 -155.727
LeftHand  -0.25398 0.0180481 5.50724
RightShoulder  4.4102 9.61233 27.604
RightArm  53.6578 -28.1165 11.416
RightForeArm  159.506 79.1821 127.402
RightHand  -11.0539 28.2764 -37.0568
LeftUpLeg  0.64849 9.26337 13.1633
LeftLeg  6.25012 4.75715 -0.551794
LeftFoot  -3.58614 0.566262 -8.03941
LeftToes  1.06246e-005 4.65855e-005 -8.18503e-006
302
root  -13.9311 40.8046 -12.8846 87.4817 -87.8519 -88.9812
RightUpLeg  -1.24095 -8.08699 -1.43883
RightLeg  5.7022 -11.4224 4.86849
RightFoot  -2.03297 0.214222 -2.79864
RightToes  0.00048216 0.542163 -0.142577
Spine  -3.02129 0.894102 4.25299
Spine1  22.702 3.09338 -4.88061
HEad  -14.9142 2.69871 -10.6444
LeftShoulder1  8.34229 -16.3036 -36.0168
LeftArm  51.0068 32.9308 3.09548
LeftForeArm  -148.644 -70.8537 -156.991
LeftHand  -0.25398 0.0180481 5.50724
RightShoulder  4.45203 9.65621 27.816
RightArm  53.6749 -28.518 11.9858
RightForeArm  154.757 79.7316 122.918
RightHand  -11.3707 28.5937 -37.6997
LeftUpLeg  0.982068 9.04978 13.0257
LeftLeg  6.22298 4.27375 -0.552907
LeftFoot  -3.59118 0.555824 -7.89278
LeftToes  1.06246e-005 4.65855e-005 -8.18503e-006
303
root  -13.9775 40.8192 -12.7378 70.918 -87.7273 -72.8258
RightUpLeg  -0.577898 -8.16404 -1.72261
RightLeg  5.56669 -11.8604 4.76878
RightFoot  -2.0476 0.189987 -2.5066
RightToes  0.00048216 0.542163 -0.142577
Spine  -3.43625 1.3361 3.69282
Spine1  22.5276 3.85394 -5.56073
HEad  -14.2411 2.44975 -11.4438
LeftShoulder1  8.36438 -16.1835 -36.3774
LeftArm  50.5972 32.7436 4.00968
LeftForeArm  -147.672 -69.8783 -158.275
LeftHand  -0.25398 0.0180481 5.50724
RightShoulder  4.4382 9.64237 27.7443
RightArm  53.598 -29.1629 12.7943
RightForeArm  149.015 80.279 117.294
RightHand  -11.6577 28.908 -38.2413
LeftUpLeg  1.36554 8.88347 12.8743
LeftLeg  6.13392 3.76096 -0.628207
LeftFoot  -3.6089 0.539825 -7.66713
LeftToes  1.06246e-005 4.65855e-005 -8.18503e-006
